<?xml version="1.0" encoding="UTF-8"?>
<svg id="Layer_1" data-name="Layer 1" xmlns="http://www.w3.org/2000/svg" viewBox="0 0 100 100">
  <defs>
    <style>
      .cls-1 {
        fill: #002878;
      }
    </style>
  </defs>
  <g id="Icon_ionic-ios-document" data-name="Icon ionic-ios-document">
    <g>
      <path id="Path_10" data-name="Path 10" class="cls-1" d="m64,24.75h22.76c.68,0,1.24-.54,1.25-1.22,0,0,0-.02,0-.03h0c0-2.21-.97-4.31-2.67-5.72L66.24,1.87c-1.45-1.2-3.27-1.85-5.15-1.85h0c-1.02,0-1.85.82-1.85,1.84,0,0,0,0,0,0v18.13c0,2.62,2.13,4.75,4.75,4.75h0Z"/>
      <path id="Path_11" data-name="Path 11" class="cls-1" d="m52.74,20V0H20c-4.41.01-7.99,3.59-8,8v84c.01,4.41,3.59,7.99,8,8h60c4.41-.01,7.99-3.59,8-8V31.25h-24c-6.21,0-11.24-5.04-11.25-11.25Z"/>
    </g>
  </g>
</svg>