<?xml version="1.0" encoding="utf-8"?>
<!-- Generator: Adobe Illustrator 27.3.1, SVG Export Plug-In . SVG Version: 6.00 Build 0)  -->
<svg version="1.1" id="Layer_1" xmlns="http://www.w3.org/2000/svg" xmlns:xlink="http://www.w3.org/1999/xlink" x="0px" y="0px"
	 viewBox="0 0 100 100" style="enable-background:new 0 0 100 100;" xml:space="preserve">
<style type="text/css">
	.st0{fill:#002878;}
	.st1{fill:#FFFFFF;}
</style>
<path id="Icon_awesome-search-plus_00000065069309727496953930000001718135294237372597_" class="st1" d="M59.34,37.49v6.25
	c0,1.29-1.05,2.34-2.34,2.34H46.06v10.94c0,1.29-1.05,2.34-2.34,2.34h-6.25c-1.29,0-2.34-1.05-2.34-2.34V46.08H24.18
	c-1.29,0-2.34-1.05-2.34-2.34v-6.25c0-1.29,1.05-2.34,2.34-2.34h10.94V24.21c0-1.29,1.05-2.34,2.34-2.34h6.25
	c1.29,0,2.34,1.05,2.34,2.34v10.94H57C58.29,35.15,59.33,36.2,59.34,37.49z M98.6,93.1l-5.53,5.53c-1.82,1.83-4.77,1.84-6.6,0.02
	c-0.01-0.01-0.01-0.01-0.02-0.02L66.96,79.16c-0.88-0.88-1.37-2.08-1.37-3.33v-3.18c-17.68,13.8-43.2,10.65-56.99-7.03
	s-10.65-43.2,7.03-56.99s43.2-10.65,56.99,7.03c11.46,14.68,11.46,35.28,0,49.96h3.18c1.25-0.01,2.45,0.48,3.33,1.37L98.6,86.45
	C100.42,88.29,100.42,91.26,98.6,93.1z M67.15,40.61c0-14.67-11.89-26.56-26.56-26.56S14.02,25.94,14.02,40.61
	s11.89,26.56,26.56,26.56c0,0,0,0,0,0c14.66,0.01,26.55-11.86,26.56-26.52C67.15,40.65,67.15,40.63,67.15,40.61z"/>
</svg>
