<?xml version="1.0" encoding="utf-8"?>
<!-- Generator: Adobe Illustrator 27.3.1, SVG Export Plug-In . SVG Version: 6.00 Build 0)  -->
<svg version="1.1" id="Layer_1" xmlns="http://www.w3.org/2000/svg" xmlns:xlink="http://www.w3.org/1999/xlink" x="0px" y="0px"
	 viewBox="0 0 100 100" style="enable-background:new 0 0 100 100;" xml:space="preserve">
<style type="text/css">
	.st0{fill:#002878;}
	.st1{fill:#FFFFFF;}
</style>
<path id="Icon_awesome-play-circle_00000013901374336390154170000006143497865344556186_" class="st1" d="M50,0
	C22.39,0,0,22.39,0,50s22.39,50,50,50s50-22.39,50-50c0,0,0,0,0,0C100,22.39,77.63,0,50.02,0C50.01,0,50.01,0,50,0z M73.33,54.84
	L37.84,75.19c-2.34,1.3-5.29,0.45-6.59-1.89c-0.4-0.72-0.61-1.52-0.61-2.34V29.03c0.01-2.68,2.18-4.85,4.86-4.84
	c0.82,0,1.62,0.21,2.33,0.6l35.48,21.57c2.34,1.31,3.17,4.27,1.86,6.61C74.75,53.76,74.11,54.4,73.33,54.84z"/>
</svg>
